mtllib materials.mtl
v 0.02279596 0.008785844 0.2172967
v 0.178649 0.003713012 0.1715752
v 0.1785004 -0.01543641 0.1731935
v 0.02264741 -0.01036358 0.2189149
v 0.2865576 -0.004852891 0.08011875
v 0.2864091 -0.02400231 0.08173701
v 0.317608 -0.01461661 -0.03256717
v 0.3174595 -0.03376603 -0.03094891
v 0.2634801 -0.02296197 -0.1362884
v 0.2633315 -0.0421114 -0.1346702
v 0.1386775 -0.02765274 -0.203253
v 0.1385289 -0.04680216 -0.2016347
v -0.02335916 -0.0274322 -0.2155177
v -0.02350771 -0.04658163 -0.2138995
v -0.1792122 -0.02235925 -0.1697963
v -0.1793607 -0.04150879 -0.1681781
v -0.2871208 -0.01379347 -0.07833986
v -0.2872694 -0.03294289 -0.07672158
v -0.3181712 -0.004029751 0.03434607
v -0.3183197 -0.02317917 0.03596434
v -0.2640432 0.004315615 0.1380673
v -0.2641918 -0.01483381 0.1396856
v -0.1392406 0.009006381 0.2050319
v -0.1393891 -0.01014304 0.2066502
v 0.02101214 0.02483547 0.1978083
v 0.1638985 0.02018452 0.1558909
v 0.1637622 0.002628326 0.1573745
v 0.02087593 0.007279158 0.1992919
v 0.2628293 0.01233125 0.07204342
v 0.2626931 -0.005225062 0.07352704
v 0.2912963 0.003379822 -0.03126723
v 0.2911601 -0.01417637 -0.02978361
v 0.2416718 -0.00427115 -0.1263591
v 0.2415356 -0.02182734 -0.1248754
v 0.1272526 -0.008571506 -0.1877523
v 0.1271163 -0.0261277 -0.1862687
v -0.02130292 -0.008369207 -0.1989966
v -0.02143912 -0.0259254 -0.197513
v -0.1641892 -0.003718138 -0.1570792
v -0.1643254 -0.02127445 -0.1555956
v -0.2631201 0.004135013 -0.07323179
v -0.2632563 -0.01342118 -0.07174815
v -0.2915871 0.01308644 0.03007886
v -0.2917233 -0.004469872 0.03156248
v -0.2419625 0.02073741 0.1251706
v -0.2420988 0.0031811 0.1266543
v -0.1275432 0.02503777 0.186564
v -0.1276794 0.007481575 0.1880476
v 0.1408619 0.03357601 0.1325302
v 0.2258295 0.02683103 0.06051713
v 0.2257125 0.01175272 0.06179136
v 0.1407449 0.01849759 0.1338044
v 0.2502787 0.0191431 -0.02821204
v 0.2515911 0.003734589 -0.02866417
v 0.2129709 0.02497578 -0.0952058
v 0.1093884 0.008878708 -0.1626106
v 0.1072381 -0.008316875 -0.1647442
v 0.2075413 -0.002506256 -0.1086082
v 0.001865804 0.01848483 -0.1714921
v -0.1409187 0.0130471 -0.1362669
v -0.1410357 -0.002031326 -0.1349927
v -0.01831664 -0.006025791 -0.1709938
v -0.2258863 0.01979184 -0.06425391
v -0.2260033 0.004713655 -0.06297967
v -0.2503355 0.02747989 0.02447528
v -0.2504525 0.01240158 0.02574947
v -0.2077151 0.03405094 0.1061457
v -0.2078321 0.01897264 0.1074199
v -0.1095621 0.02266598 0.1601481
v -0.1095792 0.04452431 0.1466855
v 0.01802582 0.02249217 0.1698054
v -0.2279105 0.04018331 0.07738897
v 0.04539092 0.03668356 0.1605377
v -0.2233371 0.04720283 0.06407186
v 0.2011114 0.01921618 -0.1239748
v 0.02038285 0.04409921 0.1560262
v 0.01925406 0.03857565 -0.007831633
v -0.03472538 0.008098602 -0.1734979
vn 0.282983 0.07858524 0.9559001
vn 0.6481527 0.05913092 0.7592112
vn 0.9642928 0.01486553 0.2644208
vn 0.8871183 -0.04569418 -0.4592744
vn 0.4736385 -0.07781029 -0.8772753
vn 0.07509062 -0.08454715 -0.993586
vn -0.282983 -0.07858485 -0.9559002
vn -0.6481528 -0.05913001 -0.7592112
vn -0.9642927 -0.0148674 -0.2644211
vn -0.887118 0.04569448 0.4592749
vn -0.473639 0.0778101 0.8772752
vn -0.07509062 0.08454651 0.9935861
vn 0.007729973 0.9964185 -0.0842049
vn -0.007729973 -0.9964185 0.0842049
vn 0.2829829 0.07858469 0.9559002
vn 0.6481526 0.05913012 0.7592114
vn 0.9642928 0.01486463 0.264421
vn 0.8871184 -0.04569479 -0.4592743
vn 0.4736386 -0.07781041 -0.8772753
vn 0.07509071 -0.08454689 -0.993586
vn -0.2829829 -0.07858431 -0.9559003
vn -0.6481527 -0.05912922 -0.7592113
vn -0.9642927 -0.01486649 -0.2644212
vn -0.8871181 0.04569509 0.4592748
vn -0.473639 0.07781023 0.8772751
vn -0.07509072 0.08454625 0.9935861
vn 0.007730838 0.9964185 -0.08420457
vn -0.007730838 -0.9964185 0.08420457
vn 0.6481522 0.05912973 0.7592117
vn 0.963029 0.0744308 0.2589118
vn 0.8734931 0.08844825 -0.4787344
vn 0.4857272 0.04755711 -0.8728157
vn 0.09168286 0.1113186 -0.9895466
vn -0.2829824 -0.07858407 -0.9559004
vn -0.6481524 -0.05912882 -0.7592117
vn -0.9642925 -0.01486598 -0.2644218
vn -0.8871183 0.04569548 0.4592743
vn -0.4736395 0.07781038 0.8772749
vn -0.0636069 0.5233184 0.8497601
vn -0.2464348 0.8979784 0.364561
vn -0.007731382 -0.9964185 0.08420447
vn 0.007731382 0.9964185 -0.08420447
vn -0.7011985 0.7012318 0.1288202
vn 0.118211 0.8527311 -0.5087983
vn 0.2608419 0.9569767 0.1271109
vn -0.2555351 0.8886973 0.3806821
vn 0.03206091 0.9994169 -0.01174422
vn 0.005693244 0.9994148 -0.03372896
vn 0.01404767 0.9922697 -0.1233027
vn 0.05471629 0.9979224 -0.03401637
vn -0.0007918765 0.9925591 -0.1217616
vn 0.8663324 0.2804789 -0.4132795
vn 0.8757417 -0.07783316 -0.4764647
vn 0.04768049 0.9754618 -0.2149438
vn 0.007110628 0.5371226 0.8434742
vn 0.2829824 0.07858446 0.9559004
vn 0.2829824 0.07858446 0.9559004
vn 0.1089037 0.9937156 0.02586917
vn -0.05851581 0.5412964 0.8387932
vn -0.38802 0.9028627 -0.1851473
vn -0.0973425 0.9736877 -0.2060502
vn -0.01515775 0.9846109 -0.174102
vn -0.2395176 0.909466 -0.3398573
vn 0.05956526 -0.01710067 -0.998078
vn 0.04714558 -0.1210157 -0.9915304
vn 0.3890054 -0.4525062 -0.8024418
vn -0.3071334 -0.5003257 -0.8095327
vn -0.02539392 -0.9887041 0.1477139
vn -0.3775606 0.4853883 0.7885723
vn -0.7661245 -0.4706311 0.4376752
usemtl mat19
f 4//1 3//1 2//1 1//1
f 3//2 6//2 5//2 2//2
f 6//3 8//3 7//3 5//3
f 8//4 10//4 9//4 7//4
f 10//5 12//5 11//5 9//5
f 12//6 14//6 13//6 11//6
f 14//7 16//7 15//7 13//7
f 16//8 18//8 17//8 15//8
f 18//9 20//9 19//9 17//9
f 20//10 22//10 21//10 19//10
f 22//11 24//11 23//11 21//11
f 24//12 4//12 1//12 23//12
f 24//14 22//14 20//14 18//14 16//14 14//14 12//14 10//14 8//14 6//14 3//14 4//14
f 28//15 27//15 26//15 25//15
f 27//16 30//16 29//16 26//16
f 30//17 32//17 31//17 29//17
f 32//18 34//18 33//18 31//18
f 34//19 36//19 35//19 33//19
f 36//20 38//20 37//20 35//20
f 38//21 40//21 39//21 37//21
f 40//22 42//22 41//22 39//22
f 42//23 44//23 43//23 41//23
f 44//24 46//24 45//24 43//24
f 46//25 48//25 47//25 45//25
f 48//26 28//26 25//26 47//26
f 48//28 46//28 44//28 42//28 40//28 38//28 36//28 34//28 32//28 30//28 27//28 28//28
f 52//29 51//29 50//29 49//29
f 51//30 54//30 53//30 50//30
f 55//31 53//31 54//31
f 58//32 57//32 56//32
f 59//33 56//33 57//33
f 62//34 61//34 60//34
f 61//35 64//35 63//35 60//35
f 64//36 66//36 65//36 63//36
f 66//37 68//37 67//37 65//37
f 68//38 69//38 67//38
f 69//39 71//39 70//39
f 69//41 68//41 66//41 64//41 61//41 62//41 58//41 54//41 51//41 52//41 71//41
f 75//52 55//52 54//52
f 58//53 75//53 54//53
f 73//55 76//55 71//55
f 49//56 73//56 71//56
f 52//57 49//57 71//57
f 71//59 76//59 70//59
f 78//64 59//64 57//64
f 62//65 78//65 57//65
f 56//66 75//66 58//66
f 60//67 78//67 62//67
f 62//68 57//68 58//68
f 69//69 70//69 67//69
f 67//70 72//70 65//70
usemtl mat9
f 1//13 2//13 5//13 7//13 9//13 11//13 13//13 15//13 17//13 19//13 21//13 23//13
f 25//27 26//27 29//27 31//27 33//27 35//27 37//27 39//27 41//27 43//27 45//27 47//27
f 72//40 67//40 70//40
f 73//42 49//42 50//42 53//42
f 65//43 72//43 74//43
f 75//44 56//44 59//44
f 76//45 73//45 55//45
f 74//46 72//46 70//46
f 77//47 74//47 70//47
f 76//48 77//48 70//48
f 59//49 77//49 55//49
f 55//50 77//50 76//50
f 74//51 77//51 59//51
f 59//54 55//54 75//54
f 53//58 55//58 73//58
f 63//60 65//60 74//60
f 60//61 63//61 74//61
f 78//62 60//62 74//62
f 59//63 78//63 74//63
