# 3ds Max Wavefront OBJ Exporter v0.97b - (c)2007 guruware
# File Created: 21.12.2014 19:55:50

mtllib Question Block.mtl

#
# object default
#

v  5.060660 -4.403260 9.405931
v  5.060660 -4.403260 7.204300
v  5.060660 -2.755380 9.405931
v  5.060660 -2.765790 7.204300
v  -4.403950 4.403950 10.063300
v  -4.403950 -4.403950 10.063300
v  4.403950 4.403950 10.063300
v  4.403950 -4.403950 10.063300
v  2.734330 5.060660 9.399780
v  4.397110 5.060660 9.399780
v  2.718470 5.060660 7.201230
v  4.397110 5.060660 7.201230
v  4.397110 -5.060660 7.201230
v  4.397110 -5.060660 5.002670
v  5.060660 -4.403260 5.002670
v  5.060660 -4.403260 2.801040
v  4.397110 -5.060660 2.804120
v  5.060660 -4.403260 0.599416
v  4.397110 -5.060660 0.605565
v  4.397110 -5.060660 9.399780
v  5.060660 2.787920 9.405931
v  5.060660 4.403260 9.405931
v  5.060660 4.403260 7.204300
v  5.060660 4.403260 5.002670
v  4.397110 5.060660 5.002670
v  4.397110 5.060660 2.804120
v  5.060660 4.403260 2.801040
v  4.397110 5.060660 0.605566
v  5.060660 4.403260 0.599416
v  -2.843040 5.060660 9.399780
v  -4.397110 5.060660 9.399780
v  2.743540 -5.060660 9.399780
v  -2.876850 -5.060660 9.399780
v  -4.397110 -5.060660 9.399780
v  2.683500 -5.060660 7.201230
v  -2.905690 -5.060660 7.201230
v  -4.397110 -5.060660 5.002670
v  -4.397110 -5.060660 7.201230
v  2.774440 -5.060660 2.804120
v  -2.785530 -5.060660 2.804120
v  -2.818130 -5.060660 0.605565
v  -4.397110 -5.060660 2.804120
v  -4.397110 5.060660 5.002670
v  -2.868210 5.060660 7.201230
v  -4.397110 5.060660 7.201230
v  5.060660 2.787870 2.801040
v  5.060660 -2.854430 2.801050
v  5.060660 -2.853260 0.599416
v  5.060660 2.832260 0.599416
v  5.060660 2.722010 7.204300
v  -5.060660 -2.794730 7.204300
v  -5.060660 -2.826830 9.405931
v  -5.060660 2.817930 7.204300
v  -5.060660 4.403260 5.002670
v  -5.060660 -4.403260 5.002670
v  -5.060660 -2.735240 2.801040
v  -5.060660 -4.403260 2.801040
v  -5.060660 -4.403260 7.204300
v  -5.060660 2.819220 9.405931
v  -5.060660 4.403260 7.204300
v  -5.060660 2.805660 2.801040
v  -5.060660 4.403260 2.801040
v  -5.060660 2.805490 0.599416
v  -5.060660 -2.781370 0.599416
v  -5.060660 -4.403260 9.405931
v  -5.060660 -4.403260 0.599416
v  -4.397110 -5.060660 0.605565
v  -5.060660 4.403260 9.405931
v  -4.397110 5.060660 2.804120
v  -4.397110 5.060660 0.605566
v  -5.060660 4.403260 0.599416
v  4.403950 4.403950 -0.057985
v  4.403950 -4.403950 -0.057985
v  -4.403950 4.403950 -0.057985
v  -4.403950 -4.403950 -0.057985
v  2.731380 5.060660 0.605566
v  2.712590 5.060660 2.804120
v  -2.737200 5.060660 0.605566
v  2.756410 -5.060660 0.605565
v  -2.750980 5.060660 2.804120
v  -4.453130 -5.229130 0.574178
v  4.453130 -5.229130 0.574178
v  -4.453130 -5.229130 9.378119
v  4.453130 -5.229130 9.378119
v  -4.453130 5.229130 0.574178
v  -4.453130 5.229130 9.378119
v  4.453130 5.229130 0.574178
v  4.453130 5.229130 9.378119
v  5.229130 -4.453130 0.574178
v  5.229130 4.453130 0.574178
v  5.229130 -4.453130 9.378119
v  5.229130 4.453130 9.378119
v  -5.229130 -4.453130 0.574178
v  -5.229130 -4.453130 9.378119
v  -5.229130 4.453130 0.574178
v  -5.229130 4.453130 9.378119
# 96 vertices

vn 1.000000 0.000000 0.000000
vn 0.000000 0.000000 1.000000
vn 0.000000 1.000000 0.000000
vn 0.703808 -0.710391 0.000000
vn 0.707480 0.000000 0.706734
vn 0.703808 0.710391 0.000000
vn 0.000000 0.710762 0.703433
vn 0.574156 -0.584887 0.572933
vn 0.574156 0.584887 0.572933
vn 0.000000 -0.710762 0.703432
vn 0.000000 -1.000000 0.000000
vn -1.000000 0.000000 0.000000
vn -0.703808 -0.710391 0.000000
vn -0.707480 0.000000 0.706734
vn -0.703808 0.710391 0.000000
vn -0.574156 -0.584887 0.572933
vn -0.574156 0.584887 0.572933
vn 0.000000 0.000000 -1.000000
vn 0.707480 0.000000 -0.706733
vn 0.000000 0.710763 -0.703432
vn 0.574157 -0.584887 -0.572932
vn 0.574156 0.584887 -0.572933
vn 0.000000 -0.710763 -0.703432
vn -0.707480 0.000000 -0.706733
vn -0.574157 -0.584887 -0.572932
vn -0.574156 0.584887 -0.572933
# 26 vertex normals

vt -0.497873 1.075800 0.000000
vt -0.497873 -0.233678 0.000000
vt 0.482247 1.075800 0.000000
vt 0.476055 -0.233678 0.000000
vt 0.314939 0.909325 0.000000
vt 0.345561 0.909325 0.000000
vt 0.492492 1.075800 0.000000
vt 0.501939 -0.233678 0.000000
vt 0.409297 0.002494 0.000000
vt 0.409297 0.009959 0.000000
vt 0.407048 0.002484 0.000000
vt 0.407048 -0.004970 0.000000
vt 0.409297 -0.004970 0.000000
vt 0.409297 -0.012435 0.000000
vt 0.407048 -0.012424 0.000000
vt 0.409297 -0.019899 0.000000
vt 0.407048 -0.019878 0.000000
vt 0.407048 0.009938 0.000000
vt 0.407071 0.012187 0.000000
vt 0.401410 0.009938 0.000000
vt 0.377209 0.012187 0.000000
vt 0.382501 0.009938 0.000000
vt 0.377232 0.009938 0.000000
vt 0.490412 0.049126 0.000000
vt 0.490351 0.043240 0.000000
vt 0.496298 0.049132 0.000000
vt 0.496298 0.049187 0.000000
vt 0.490406 0.043240 0.000000
vt 0.401442 0.009938 0.000000
vt 0.382386 0.009938 0.000000
vt 0.339789 0.907018 0.000000
vt 0.320248 0.907018 0.000000
vt 0.339580 0.899374 0.000000
vt 0.320148 0.899374 0.000000
vt 0.345538 0.891730 0.000000
vt 0.345538 0.899374 0.000000
vt 0.314963 0.891730 0.000000
vt 0.314963 0.899374 0.000000
vt 0.339896 0.884087 0.000000
vt 0.345538 0.884087 0.000000
vt 0.320566 0.884087 0.000000
vt 0.320453 0.876443 0.000000
vt 0.314963 0.884087 0.000000
vt 0.339701 0.899374 0.000000
vt 0.320279 0.899374 0.000000
vt 0.320366 0.907018 0.000000
vt 0.339757 0.907018 0.000000
vt 0.347844 0.891730 0.000000
vt 0.347844 0.899385 0.000000
vt 0.347844 0.884076 0.000000
vt 0.347844 0.876422 0.000000
vt 0.347844 0.907039 0.000000
vt 0.312656 0.899385 0.000000
vt 0.312656 0.907039 0.000000
vt 0.312656 0.891730 0.000000
vt 0.312656 0.884076 0.000000
vt 0.312656 0.876422 0.000000
vt 0.374982 0.002494 0.000000
vt 0.377232 0.002484 0.000000
vt 0.374982 0.009959 0.000000
vt 0.377232 -0.004970 0.000000
vt 0.374982 -0.004970 0.000000
vt 0.374982 -0.012435 0.000000
vt 0.377232 -0.012424 0.000000
vt 0.374982 -0.019899 0.000000
vt 0.377232 -0.019878 0.000000
vt 0.494073 0.043845 0.000000
vt 0.494080 0.049731 0.000000
vt 0.488188 0.043784 0.000000
vt 0.494135 0.049731 0.000000
vt 0.488188 0.043839 0.000000
vt -0.498338 0.019689 0.000000
vt 0.423565 0.019689 0.000000
vt -0.498338 1.329170 0.000000
vt 0.422871 1.329170 0.000000
vt 0.345561 0.874136 0.000000
vt 0.314939 0.874136 0.000000
vt 0.493787 0.019689 0.000000
vt 0.504975 1.329170 0.000000
vt 0.407071 -0.022128 0.000000
vt 0.401400 -0.019878 0.000000
vt 0.377209 -0.022128 0.000000
vt 0.382860 -0.019878 0.000000
vt 0.382585 -0.019878 0.000000
vt 0.401485 -0.019878 0.000000
vt 0.339833 0.876443 0.000000
vt 0.339681 0.884087 0.000000
vt 0.320686 0.884087 0.000000
vt 0.339746 0.876443 0.000000
vt 0.320734 0.876443 0.000000
vt 0.451877 1.329170 0.000000
vt 0.451979 0.019689 0.000000
vt 0.482112 1.329170 0.000000
vt 0.490318 0.019689 0.000000
vt 0.427744 1.075800 0.000000
vt 0.412754 -0.233678 0.000000
vt 0.466325 0.019689 0.000000
vt 0.493763 1.329170 0.000000
vt 0.445042 -0.233678 0.000000
vt 0.444278 1.075800 0.000000
vt 0.439753 1.075800 0.000000
vt 0.458845 -0.233678 0.000000
vt 0.390429 -0.233678 0.000000
vt 0.407610 1.075800 0.000000
vt 0.442114 0.019689 0.000000
vt 0.461534 1.329170 0.000000
vt 0.468139 1.329170 0.000000
vt 0.478877 0.019689 0.000000
vt 0.487011 1.075800 0.000000
vt 0.522769 -0.233678 0.000000
vt 0.462458 1.329170 0.000000
vt 0.436055 0.019689 0.000000
vt 0.462894 1.075800 0.000000
vt 0.502096 -0.233678 0.000000
vt -0.011355 0.025322 0.000000
vt 0.986881 0.025322 0.000000
vt -0.011355 1.023560 0.000000
vt 0.986881 1.023560 0.000000
vt -0.024323 0.012355 0.000000
vt 0.973914 0.012355 0.000000
vt -0.024323 1.010590 0.000000
vt 0.973914 1.010590 0.000000
# 122 texture coords

g default
usemtl BlockQuestionMat00
s 1
f 1/1/1 2/2/1 3/3/1 
f 2/2/1 4/4/1 3/3/1 
f 5/5/2 6/5/2 7/6/2 
f 6/5/2 8/6/2 7/6/2 
f 9/7/3 10/1/3 11/8/3 
f 10/1/3 12/2/3 11/8/3 
f 2/9/4 1/10/4 13/11/4 
f 2/9/4 13/11/4 14/12/4 
f 15/13/4 2/9/4 14/12/4 
f 15/13/4 14/12/4 16/14/4 
f 14/12/4 17/15/4 16/14/4 
f 16/14/4 17/15/4 18/16/4 
f 17/15/4 19/17/4 18/16/4 
f 1/10/4 20/18/4 13/11/4 
f 3/10/5 21/10/5 8/19/5 
f 1/10/5 3/10/5 8/19/5 
f 21/10/5 7/19/5 8/19/5 
f 7/19/5 21/10/5 22/10/5 
f 22/10/6 23/9/6 10/18/6 
f 23/9/6 12/11/6 10/18/6 
f 23/9/6 24/13/6 12/11/6 
f 24/13/6 25/12/6 12/11/6 
f 26/15/6 25/12/6 24/13/6 
f 27/14/6 26/15/6 24/13/6 
f 28/17/6 26/15/6 27/14/6 
f 29/16/6 28/17/6 27/14/6 
f 10/18/7 9/20/7 7/19/7 
f 7/19/7 9/20/7 5/21/7 
f 9/20/7 30/22/7 5/21/7 
f 31/23/7 5/21/7 30/22/7 
f 8/24/8 20/25/8 1/26/8 
f 10/27/9 7/24/9 22/28/9 
f 8/19/10 6/21/10 32/29/10 
f 8/19/10 32/29/10 20/18/10 
f 6/21/10 33/30/10 32/29/10 
f 6/21/10 34/23/10 33/30/10 
f 32/31/11 33/32/11 35/33/11 
f 33/32/11 36/34/11 35/33/11 
f 35/33/11 36/34/11 14/35/11 
f 14/35/11 13/36/11 35/33/11 
f 36/34/11 37/37/11 14/35/11 
f 37/37/11 36/34/11 38/38/11 
f 14/35/11 37/37/11 39/39/11 
f 14/35/11 39/39/11 17/40/11 
f 40/41/11 41/42/11 39/39/11 
f 37/37/11 40/41/11 39/39/11 
f 37/37/11 42/43/11 40/41/11 
f 11/44/3 12/36/3 25/35/3 
f 11/44/3 25/35/3 43/37/3 
f 44/45/3 11/44/3 43/37/3 
f 44/45/3 43/37/3 45/38/3 
f 11/44/3 44/45/3 30/46/3 
f 9/47/3 11/44/3 30/46/3 
f 15/48/1 24/48/1 4/49/1 
f 46/50/1 24/48/1 15/48/1 
f 47/50/1 46/50/1 15/48/1 
f 16/50/1 47/50/1 15/48/1 
f 47/50/1 48/51/1 46/50/1 
f 48/51/1 49/51/1 46/50/1 
f 24/48/1 46/50/1 27/50/1 
f 24/48/1 50/49/1 4/49/1 
f 50/49/1 24/48/1 23/49/1 
f 4/49/1 50/49/1 21/52/1 
f 3/52/1 4/49/1 21/52/1 
f 2/49/1 15/48/1 4/49/1 
f 51/53/12 52/54/12 53/53/12 
f 51/53/12 53/53/12 54/55/12 
f 55/55/12 51/53/12 54/55/12 
f 55/55/12 54/55/12 56/56/12 
f 57/56/12 55/55/12 56/56/12 
f 58/53/12 51/53/12 55/55/12 
f 52/54/12 59/54/12 53/53/12 
f 54/55/12 53/53/12 60/53/12 
f 54/55/12 61/56/12 56/56/12 
f 61/56/12 54/55/12 62/56/12 
f 56/56/12 61/56/12 63/57/12 
f 64/57/12 56/56/12 63/57/12 
f 58/58/13 38/59/13 65/60/13 
f 37/61/13 38/59/13 58/58/13 
f 55/62/13 37/61/13 58/58/13 
f 55/62/13 57/63/13 37/61/13 
f 57/63/13 42/64/13 37/61/13 
f 57/63/13 66/65/13 42/64/13 
f 66/65/13 67/66/13 42/64/13 
f 38/59/13 34/23/13 65/60/13 
f 6/21/14 5/21/14 52/60/14 
f 65/60/14 6/21/14 52/60/14 
f 5/21/14 59/60/14 52/60/14 
f 59/60/14 5/21/14 68/60/14 
f 68/60/15 31/23/15 60/58/15 
f 31/23/15 45/59/15 60/58/15 
f 60/58/15 45/59/15 54/62/15 
f 45/59/15 43/61/15 54/62/15 
f 54/62/15 43/61/15 69/64/15 
f 62/63/15 54/62/15 69/64/15 
f 62/63/15 69/64/15 70/66/15 
f 71/65/15 62/63/15 70/66/15 
f 6/67/16 65/68/16 34/69/16 
f 31/70/17 68/71/17 5/67/17 
f 18/72/1 48/73/1 16/74/1 
f 48/73/1 47/75/1 16/74/1 
f 72/76/18 73/76/18 74/77/18 
f 73/76/18 75/77/18 74/77/18 
f 76/78/3 77/79/3 28/72/3 
f 77/79/3 26/74/3 28/72/3 
f 49/16/19 48/16/19 72/80/19 
f 49/16/19 72/80/19 29/16/19 
f 48/16/19 73/80/19 72/80/19 
f 18/16/19 73/80/19 48/16/19 
f 28/17/20 72/80/20 76/81/20 
f 76/81/20 72/80/20 74/82/20 
f 78/83/20 76/81/20 74/82/20 
f 70/66/20 78/83/20 74/82/20 
f 73/24/21 18/26/21 19/25/21 
f 28/27/22 29/28/22 72/24/22 
f 41/84/23 75/82/23 79/85/23 
f 75/82/23 41/84/23 67/66/23 
f 75/82/23 73/80/23 79/85/23 
f 73/80/23 19/17/23 79/85/23 
f 41/42/11 79/86/11 39/39/11 
f 77/87/3 25/35/3 26/40/3 
f 25/35/3 77/87/3 43/37/3 
f 77/87/3 80/88/3 43/37/3 
f 77/87/3 76/89/3 80/88/3 
f 76/89/3 78/90/3 80/88/3 
f 43/37/3 80/88/3 69/43/3 
f 75/82/24 64/65/24 74/82/24 
f 66/65/24 64/65/24 75/82/24 
f 64/65/24 63/65/24 74/82/24 
f 63/65/24 71/65/24 74/82/24 
f 75/67/25 67/69/25 66/68/25 
f 70/70/26 74/67/26 71/71/26 
f 61/91/12 62/74/12 63/92/12 
f 62/74/12 71/72/12 63/92/12 
f 80/93/3 78/94/3 69/74/3 
f 78/94/3 70/72/3 69/74/3 
f 30/95/3 44/96/3 31/1/3 
f 44/96/3 45/2/3 31/1/3 
f 66/72/12 57/74/12 64/97/12 
f 57/74/12 56/98/12 64/97/12 
f 53/99/12 59/100/12 60/2/12 
f 59/100/12 68/1/12 60/2/12 
f 65/1/12 52/101/12 58/2/12 
f 52/101/12 51/102/12 58/2/12 
f 36/103/11 33/104/11 38/2/11 
f 33/104/11 34/1/11 38/2/11 
f 41/105/11 40/106/11 67/72/11 
f 40/106/11 42/74/11 67/72/11 
f 39/107/11 79/108/11 17/74/11 
f 79/108/11 19/72/11 17/74/11 
f 32/109/11 35/110/11 20/1/11 
f 35/110/11 13/2/11 20/1/11 
f 46/111/1 49/112/1 27/74/1 
f 49/112/1 29/72/1 27/74/1 
f 21/113/1 50/114/1 22/1/1 
f 50/114/1 23/2/1 22/1/1 
usemtl BlockQuestionMat01
f 81/115/11 82/116/11 83/117/11 
f 82/116/11 84/118/11 83/117/11 
f 85/116/3 86/118/3 87/115/3 
f 86/118/3 88/117/3 87/115/3 
f 89/119/1 90/120/1 91/121/1 
f 90/120/1 92/122/1 91/121/1 
f 93/120/12 94/122/12 95/119/12 
f 94/122/12 96/121/12 95/119/12 
# 0 polygons - 164 triangles

